<svg width="50" height="50" viewBox="0 0 50 50" fill="none" xmlns="http://www.w3.org/2000/svg">
<path d="M9 4C6.25048 4 4 6.24977 4 8.99841V40.9882C4 43.7369 6.25048 45.9866 9 45.9866H25.832C25.94 46.0045 26.0502 46.0045 26.1582 45.9866H31.832C31.94 46.0045 32.0502 46.0045 32.1582 45.9866H41C43.7495 45.9866 46 43.7369 46 40.9882V8.99841C46 6.24977 43.7495 4 41 4H9ZM9 5.99936H41C42.6685 5.99936 44 7.33045 44 8.99841V40.9882C44 42.6562 42.6685 43.9873 41 43.9873H33V29.9917H36.8203L38.2207 22.9939H33V20.9946C33 20.4373 33.0531 20.3937 33.2402 20.2722C33.4274 20.1506 34.0058 19.9949 35 19.9949H38V14.3658L37.4297 14.0944C37.4297 14.0944 35.1326 12.9971 32 12.9971C29.75 12.9971 27.9016 13.8933 26.7188 15.3714C25.5359 16.8495 25 18.8286 25 20.9946V22.9939H22V29.9917H25V43.9873H9C7.33152 43.9873 6 42.6562 6 40.9882V8.99841C6 7.33045 7.33152 5.99936 9 5.99936ZM32 14.9965C34.0791 14.9965 35.3874 15.4548 36 15.6974V17.9955H35C33.8492 17.9955 32.927 18.0907 32.1504 18.595C31.3738 19.0992 31 20.0564 31 20.9946V24.9933H35.7793L35.1797 27.9924H31V43.9873H27V27.9924H24V24.9933H27V20.9946C27 19.1618 27.4641 17.6421 28.2812 16.621C29.0984 15.5999 30.25 14.9965 32 14.9965Z" fill="#F44D34"/>
</svg>
