<svg width="50" height="50" viewBox="0 0 50 50" fill="none" xmlns="http://www.w3.org/2000/svg">
<path d="M16.4091 4C9.56737 4 4 9.56737 4 16.4091V33.5909C4 40.4326 9.56737 46 16.4091 46H33.5909C40.4326 46 46 40.4326 46 33.5909V16.4091C46 9.56737 40.4326 4 33.5909 4H16.4091ZM16.4091 5.90909H33.5909C39.4007 5.90909 44.0909 10.5993 44.0909 16.4091V33.5909C44.0909 39.4007 39.4007 44.0909 33.5909 44.0909H16.4091C10.5993 44.0909 5.90909 39.4007 5.90909 33.5909V16.4091C5.90909 10.5993 10.5993 5.90909 16.4091 5.90909ZM36.4545 11.6364C35.9482 11.6364 35.4626 11.8375 35.1046 12.1955C34.7466 12.5535 34.5455 13.0391 34.5455 13.5455C34.5455 14.0518 34.7466 14.5374 35.1046 14.8954C35.4626 15.2534 35.9482 15.4545 36.4545 15.4545C36.9609 15.4545 37.4465 15.2534 37.8045 14.8954C38.1625 14.5374 38.3636 14.0518 38.3636 13.5455C38.3636 13.0391 38.1625 12.5535 37.8045 12.1955C37.4465 11.8375 36.9609 11.6364 36.4545 11.6364ZM25 14.5C19.2123 14.5 14.5 19.2123 14.5 25C14.5 30.7877 19.2123 35.5 25 35.5C30.7877 35.5 35.5 30.7877 35.5 25C35.5 19.2123 30.7877 14.5 25 14.5ZM25 16.4091C29.7559 16.4091 33.5909 20.2441 33.5909 25C33.5909 29.7559 29.7559 33.5909 25 33.5909C20.2441 33.5909 16.4091 29.7559 16.4091 25C16.4091 20.2441 20.2441 16.4091 25 16.4091Z" fill="#F44D34"/>
</svg>
