<svg width="50" height="50" viewBox="0 0 50 50" fill="none" xmlns="http://www.w3.org/2000/svg">
<path d="M34.8485 24H15.1515C13.4111 24 12 25.4328 12 27.2V36.8C12 38.5672 13.4111 40 15.1515 40H34.8485C36.5889 40 38 38.5672 38 36.8V27.2C38 25.4328 36.5889 24 34.8485 24Z" stroke="#F44D34" stroke-miterlimit="10"/>
<path d="M25.7513 13.6365C25.5855 13.075 25.3249 12.661 24.9667 12.3971C24.6092 12.1324 24.1332 12 23.5403 12C22.9371 12 22.4508 12.1292 22.0807 12.3899C21.7091 12.649 21.4367 13.0629 21.262 13.6293C21.0881 14.1973 21 14.9481 21 15.8827V17.1438C21 18.0687 21.0762 18.8108 21.2295 19.3683C21.3819 19.9258 21.6395 20.3374 22.0015 20.6013C22.3642 20.866 22.8638 20.9984 23.5004 21C24.1199 21 24.6121 20.8708 24.9734 20.6101C25.3346 20.3494 25.5973 19.9395 25.758 19.3771C25.9186 18.814 26 18.0711 26 17.1446V15.8827C26 14.9473 25.9171 14.1997 25.7513 13.6365ZM24.1813 17.8529C24.1813 18.4963 24.1303 18.9584 24.0311 19.2416C23.9312 19.5247 23.7535 19.6667 23.5019 19.6675C23.2494 19.6675 23.0748 19.5247 22.9785 19.2416C22.8816 18.9584 22.8342 18.4947 22.8342 17.8529V15.1455C22.8342 14.5221 22.8853 14.0665 22.9845 13.7777C23.0836 13.4913 23.2561 13.3469 23.5004 13.3469C23.7528 13.3469 23.9312 13.4897 24.0303 13.7777C24.131 14.0649 24.1806 14.5213 24.1806 15.1455V17.8529H24.1813Z" fill="#F44D34"/>
<path d="M17.0625 17.1096L15.0085 9.30761C14.9678 9.153 15.0785 9 15.2307 9H16.4788C16.6603 9 16.8164 9.12871 16.8541 9.3157C17.0871 10.4733 17.883 14.4463 17.9599 14.9903H18.0152C18.0698 14.5993 18.9057 10.4927 19.1464 9.31409C19.1841 9.1279 19.3402 9 19.5209 9H20.769C20.922 9 21.0327 9.1538 20.9912 9.30842L18.9111 17.1096V20.5953C18.9111 20.8187 18.7389 21 18.5266 21H17.447C17.2347 21 17.0625 20.8187 17.0625 20.5953V17.1096Z" fill="#F44D34"/>
<path d="M33 12.4092V20.4468C33 20.6727 32.8307 20.856 32.6221 20.856H31.8783C31.6924 20.856 31.5344 20.7103 31.5049 20.5115L31.3953 19.7717H31.3553C30.9637 20.5908 30.3749 21 29.5911 21C29.0476 21 28.6463 20.8069 28.3878 20.4223C28.13 20.0376 28 19.4337 28 18.6146V12.4092C28 12.1833 28.1693 12 28.3779 12H29.4664C29.675 12 29.8443 12.1833 29.8443 12.4092V18.5C29.8443 18.8961 29.8844 19.1759 29.9652 19.3453C30.0461 19.5147 30.1791 19.5982 30.3673 19.5982C30.5283 19.5982 30.6803 19.5458 30.8284 19.4386C30.9766 19.3322 31.0847 19.198 31.1557 19.0336V12.4092C31.1557 12.1833 31.325 12 31.5336 12H32.6221C32.8307 12 33 12.1833 33 12.4092Z" fill="#F44D34"/>
<path d="M17.9167 36H17.0833C16.8533 36 16.6667 35.8385 16.6667 35.6395V28.442H15.4167C15.1867 28.442 15 28.2805 15 28.0815V27.3605C15 27.1615 15.1867 27 15.4167 27H19.5833C19.8133 27 20 27.1615 20 27.3605V28.0815C20 28.2805 19.8133 28.442 19.5833 28.442H18.3333V35.6395C18.3333 35.8385 18.1467 36 17.9167 36Z" fill="#F44D34"/>
<path d="M24 35.4965C24 35.7119 23.8337 35.8868 23.6287 35.8868H23.1595C22.9768 35.8868 22.8216 35.7471 22.7926 35.5582L22.7147 35.0445H22.682C22.3687 35.6823 21.8986 36 21.272 36C20.8368 36 20.5175 35.8509 20.3104 35.5504C20.1032 35.2514 20 34.7822 20 34.1468V29.3927C20 29.1772 20.1663 29.0023 20.3713 29.0023H21.1049C21.3098 29.0023 21.4761 29.1772 21.4761 29.3927V34.057C21.4761 34.363 21.5088 34.5839 21.5727 34.7135C21.6373 34.8454 21.7427 34.9102 21.8942 34.9102C22.0219 34.9102 22.1452 34.8689 22.2625 34.7853C22.3813 34.7026 22.4659 34.5972 22.5246 34.4699V29.3903C22.5246 29.1749 22.6909 29 22.8959 29H23.6287C23.8337 29 24 29.1749 24 29.3903V35.4965Z" fill="#F44D34"/>
<path d="M28.9993 32.2734C28.9993 31.5692 28.9567 31.0184 28.8724 30.6203C28.788 30.2236 28.649 29.9353 28.4597 29.7577C28.2703 29.58 28.0087 29.4908 27.6754 29.4908C27.4166 29.4908 27.1755 29.5643 26.9507 29.7113C26.7266 29.859 26.5522 30.0509 26.4302 30.2906H26.4182V27.3567C26.4182 27.1598 26.2594 27 26.0636 27H25.3545C25.1588 27 25 27.1598 25 27.3567V35.5498C25 35.7467 25.1588 35.9065 25.3545 35.9065H25.9452C26.109 35.9065 26.2516 35.7938 26.2898 35.6333L26.3664 35.3122H26.3976C26.5068 35.5248 26.6692 35.6925 26.8869 35.8152C27.1046 35.9379 27.3464 36 27.6116 36C28.0874 36 28.4377 35.7795 28.6625 35.3379C28.8873 34.8962 29 34.2063 29 33.2687H28.9993V32.2734ZM27.5818 33.1874C27.5818 33.6455 27.5627 34.0058 27.5251 34.2648C27.4889 34.5252 27.4258 34.71 27.3372 34.8199C27.2485 34.9298 27.1301 34.9833 26.9805 34.9833C26.8642 34.9833 26.7571 34.954 26.6586 34.9005C26.56 34.8456 26.4799 34.7642 26.4182 34.6544V31.0819C26.465 30.9121 26.5487 30.7708 26.6642 30.6616C26.7798 30.5518 26.906 30.4983 27.0415 30.4983C27.1854 30.4983 27.296 30.5553 27.374 30.6674C27.4513 30.7794 27.5066 30.9706 27.5364 31.2374C27.5676 31.505 27.5825 31.8846 27.5825 32.3776V33.1874H27.5818Z" fill="#F44D34"/>
<path d="M33.6201 33.0198C33.8298 33.0198 34 32.848 34 32.6362V31.8589C34 31.1453 33.943 30.586 33.8306 30.1809C33.7174 29.7773 33.5214 29.4788 33.2456 29.287C32.9683 29.0959 32.5709 29 32.0543 29C31.3045 29 30.7742 29.2325 30.465 29.7005C30.1557 30.1686 30 30.9106 30 31.9257V33.1073C30 34.094 30.1474 34.8222 30.4475 35.2933C30.7476 35.7644 31.2688 36 32.0118 36C32.631 36 33.1096 35.8465 33.4492 35.5366C33.7622 35.2527 33.9309 34.8314 33.9544 34.2759C33.9544 34.0641 33.7835 33.8923 33.5738 33.8923C33.456 33.8923 33.1141 33.8923 32.9956 33.8923C32.7859 33.8923 32.6127 34.0641 32.6127 34.2759C32.6127 34.4194 32.5854 34.5974 32.536 34.6971C32.4448 34.879 32.2693 34.9626 32.0437 34.9626C31.8765 34.9626 31.7527 34.9143 31.6729 34.8145C31.5932 34.7163 31.5415 34.5567 31.5149 34.3404C31.4883 34.124 31.4762 33.7979 31.4762 33.3628V33.0206H33.6201V33.0198ZM31.4739 32.1137V31.628C31.4739 31.1875 31.4868 30.8568 31.5126 30.6405C31.5369 30.4233 31.5878 30.2668 31.6646 30.1709C31.7413 30.0757 31.8606 30.0274 32.0209 30.0274C32.1827 30.0274 32.3005 30.0734 32.3772 30.1647C32.4539 30.2576 32.5056 30.4141 32.5337 30.6397C32.5626 30.8638 32.577 31.1922 32.577 31.6272V32.1129H31.4739V32.1137Z" fill="#F44D34"/>
<rect x="5" y="5" width="40" height="40" rx="3" stroke="#F44D34" stroke-width="2"/>
</svg>
