<svg version="1.2" baseProfile="tiny-ps" xmlns="http://www.w3.org/2000/svg" viewBox="0 0 58 58" width="58" height="58">
	<title>Новый проект</title>
	<style>
		tspan { white-space:pre }
		.shp0 { fill: none;stroke: #ffffff;stroke-width: 2 } 
		.shp1 { fill: none;stroke: #000000;stroke-width: 2 } 
		.shp2 { fill: #000000;stroke: #ffffff;paint-order:stroke fill markers;stroke-width: 4 } 
		.shp3 { fill: #000000 } 
	</style>
	<path id="Слой 1" class="shp0" d="M29 57C13.52 57 1 44.48 1 29C1 13.52 13.52 1 29 1C44.48 1 57 13.52 57 29C57 44.48 44.48 57 29 57Z" />
	<path id="Слой 1 copy" class="shp1" d="M29 55C14.62 55 3 43.38 3 29C3 14.62 14.62 3 29 3C43.38 3 55 14.62 55 29C55 43.38 43.38 55 29 55Z" />
	<path id="Background" class="shp2" d="M28.29 14.75L19.51 28.02C19.17 28.54 19 29.16 19 29.88C19 30.58 19.17 31.19 19.51 31.71L20.52 33.24C20.85 33.76 21.25 34.01 21.74 34.01C22.22 34.01 22.63 33.76 22.95 33.24L26.91 27.27L26.91 41.62C26.91 42.32 27.08 42.9 27.42 43.34C27.75 43.78 28.16 44 28.64 44L30.36 44C30.84 44 31.25 43.78 31.58 43.34C31.92 42.9 32.09 42.32 32.09 41.62L32.09 27.27L36.04 33.24C36.38 33.76 36.79 34.01 37.26 34.01C37.74 34.01 38.15 33.76 38.49 33.24L39.5 31.71C39.83 31.18 40 30.57 40 29.88C40 29.17 39.83 28.55 39.5 28.02L30.73 14.75C30.39 14.25 29.99 14 29.5 14C29.01 14 28.6 14.25 28.29 14.75L28.29 14.75Z" />
	<path id="Background copy" class="shp3" d="M28.29 14.75L19.51 28.02C19.17 28.54 19 29.16 19 29.88C19 30.58 19.17 31.19 19.51 31.71L20.52 33.24C20.85 33.76 21.25 34.01 21.74 34.01C22.22 34.01 22.63 33.76 22.95 33.24L26.91 27.27L26.91 41.62C26.91 42.32 27.08 42.9 27.42 43.34C27.75 43.78 28.16 44 28.64 44L30.36 44C30.84 44 31.25 43.78 31.58 43.34C31.92 42.9 32.09 42.32 32.09 41.62L32.09 27.27L36.04 33.24C36.38 33.76 36.79 34.01 37.26 34.01C37.74 34.01 38.15 33.76 38.49 33.24L39.5 31.71C39.83 31.18 40 30.57 40 29.88C40 29.17 39.83 28.55 39.5 28.02L30.73 14.75C30.39 14.25 29.99 14 29.5 14C29.01 14 28.6 14.25 28.29 14.75L28.29 14.75Z" />
</svg>