<svg width="147" height="56" viewBox="0 0 147 56" fill="none" xmlns="http://www.w3.org/2000/svg">
<path d="M22.196 20.2C24.612 20.2 26.46 20.64 27.74 21.52C29.036 22.4 29.684 23.776 29.684 25.648C29.684 26.624 29.508 27.464 29.156 28.168C28.82 28.856 28.324 29.424 27.668 29.872C27.012 30.304 26.212 30.624 25.268 30.832C24.324 31.04 23.244 31.144 22.028 31.144H20.516V37H17.492V20.608C18.196 20.448 18.972 20.344 19.82 20.296C20.684 20.232 21.476 20.2 22.196 20.2ZM22.412 22.816C21.644 22.816 21.012 22.84 20.516 22.888V28.552H21.98C23.436 28.552 24.556 28.352 25.34 27.952C26.124 27.536 26.516 26.76 26.516 25.624C26.516 25.08 26.412 24.624 26.204 24.256C25.996 23.888 25.708 23.6 25.34 23.392C24.972 23.184 24.532 23.04 24.02 22.96C23.524 22.864 22.988 22.816 22.412 22.816ZM37.0291 20.2C39.4291 20.2 41.2611 20.64 42.5251 21.52C43.8051 22.4 44.4451 23.744 44.4451 25.552C44.4451 27.808 43.3331 29.336 41.1091 30.136C41.4131 30.504 41.7571 30.952 42.1411 31.48C42.5251 32.008 42.9171 32.584 43.3171 33.208C43.7171 33.816 44.1011 34.448 44.4691 35.104C44.8371 35.744 45.1651 36.376 45.4531 37H42.0691C41.7651 36.424 41.4371 35.848 41.0851 35.272C40.7331 34.68 40.3731 34.112 40.0051 33.568C39.6531 33.008 39.3011 32.488 38.9491 32.008C38.5971 31.512 38.2691 31.072 37.9651 30.688C37.7411 30.704 37.5491 30.712 37.3891 30.712C37.2291 30.712 37.0771 30.712 36.9331 30.712H35.4691V37H32.4451V20.608C33.1811 20.448 33.9651 20.344 34.7971 20.296C35.6291 20.232 36.3731 20.2 37.0291 20.2ZM37.2451 22.816C36.6051 22.816 36.0131 22.84 35.4691 22.888V28.264H36.7891C37.5251 28.264 38.1731 28.224 38.7331 28.144C39.2931 28.064 39.7571 27.92 40.1251 27.712C40.5091 27.504 40.7971 27.224 40.9891 26.872C41.1811 26.52 41.2771 26.072 41.2771 25.528C41.2771 25.016 41.1811 24.584 40.9891 24.232C40.7971 23.88 40.5171 23.6 40.1491 23.392C39.7971 23.184 39.3731 23.04 38.8771 22.96C38.3811 22.864 37.8371 22.816 37.2451 22.816ZM50.0578 28.672C50.0578 29.584 50.1698 30.416 50.3938 31.168C50.6178 31.904 50.9378 32.536 51.3538 33.064C51.7858 33.576 52.3058 33.976 52.9138 34.264C53.5218 34.552 54.2098 34.696 54.9778 34.696C55.7298 34.696 56.4098 34.552 57.0178 34.264C57.6258 33.976 58.1378 33.576 58.5538 33.064C58.9858 32.536 59.3138 31.904 59.5378 31.168C59.7618 30.416 59.8738 29.584 59.8738 28.672C59.8738 27.76 59.7618 26.936 59.5378 26.2C59.3138 25.448 58.9858 24.816 58.5538 24.304C58.1378 23.776 57.6258 23.368 57.0178 23.08C56.4098 22.792 55.7298 22.648 54.9778 22.648C54.2098 22.648 53.5218 22.792 52.9138 23.08C52.3058 23.368 51.7858 23.776 51.3538 24.304C50.9378 24.832 50.6178 25.464 50.3938 26.2C50.1698 26.936 50.0578 27.76 50.0578 28.672ZM63.0418 28.672C63.0418 30.096 62.8258 31.352 62.3938 32.44C61.9778 33.528 61.4018 34.44 60.6658 35.176C59.9458 35.896 59.0978 36.44 58.1218 36.808C57.1458 37.176 56.1058 37.36 55.0018 37.36C53.8978 37.36 52.8498 37.176 51.8578 36.808C50.8818 36.44 50.0258 35.896 49.2898 35.176C48.5698 34.44 47.9938 33.528 47.5618 32.44C47.1298 31.352 46.9138 30.096 46.9138 28.672C46.9138 27.248 47.1298 26 47.5618 24.928C47.9938 23.84 48.5778 22.928 49.3138 22.192C50.0658 21.456 50.9298 20.904 51.9058 20.536C52.8818 20.168 53.9138 19.984 55.0018 19.984C56.0898 19.984 57.1218 20.168 58.0978 20.536C59.0738 20.904 59.9218 21.456 60.6418 22.192C61.3778 22.928 61.9618 23.84 62.3938 24.928C62.8258 26 63.0418 27.248 63.0418 28.672Z" fill="#F44D34"/>
<path d="M74.5432 30.784C74.5432 29.488 74.2472 28.48 73.6552 27.76C73.0792 27.04 72.1432 26.68 70.8472 26.68C70.5752 26.68 70.2872 26.696 69.9832 26.728C69.6952 26.744 69.4072 26.792 69.1192 26.872V34.048C69.3752 34.224 69.7112 34.392 70.1272 34.552C70.5592 34.696 71.0152 34.768 71.4952 34.768C72.5512 34.768 73.3192 34.408 73.7992 33.688C74.2952 32.968 74.5432 32 74.5432 30.784ZM77.5192 30.736C77.5192 31.696 77.3912 32.576 77.1352 33.376C76.8952 34.176 76.5432 34.864 76.0792 35.44C75.6152 36.016 75.0312 36.464 74.3272 36.784C73.6392 37.104 72.8552 37.264 71.9752 37.264C71.3832 37.264 70.8392 37.192 70.3432 37.048C69.8472 36.904 69.4392 36.744 69.1192 36.568V41.44H66.2152V24.856C66.8072 24.696 67.5352 24.544 68.3992 24.4C69.2632 24.256 70.1752 24.184 71.1352 24.184C72.1272 24.184 73.0152 24.336 73.7992 24.64C74.5832 24.944 75.2472 25.384 75.7912 25.96C76.3512 26.52 76.7752 27.208 77.0632 28.024C77.3672 28.824 77.5192 29.728 77.5192 30.736ZM91.8641 30.712C91.8641 31.704 91.7201 32.608 91.4321 33.424C91.1441 34.24 90.7361 34.936 90.2081 35.512C89.6801 36.088 89.0401 36.536 88.2881 36.856C87.5521 37.176 86.7361 37.336 85.8401 37.336C84.9441 37.336 84.1281 37.176 83.3921 36.856C82.6561 36.536 82.0241 36.088 81.4961 35.512C80.9681 34.936 80.5521 34.24 80.2481 33.424C79.9601 32.608 79.8161 31.704 79.8161 30.712C79.8161 29.72 79.9601 28.824 80.2481 28.024C80.5521 27.208 80.9681 26.512 81.4961 25.936C82.0401 25.36 82.6801 24.92 83.4161 24.616C84.1521 24.296 84.9601 24.136 85.8401 24.136C86.7201 24.136 87.5281 24.296 88.2641 24.616C89.0161 24.92 89.6561 25.36 90.1841 25.936C90.7121 26.512 91.1201 27.208 91.4081 28.024C91.7121 28.824 91.8641 29.72 91.8641 30.712ZM88.8881 30.712C88.8881 29.464 88.6161 28.48 88.0721 27.76C87.5441 27.024 86.8001 26.656 85.8401 26.656C84.8801 26.656 84.1281 27.024 83.5841 27.76C83.0561 28.48 82.7921 29.464 82.7921 30.712C82.7921 31.976 83.0561 32.976 83.5841 33.712C84.1281 34.448 84.8801 34.816 85.8401 34.816C86.8001 34.816 87.5441 34.448 88.0721 33.712C88.6161 32.976 88.8881 31.976 88.8881 30.712ZM97.1358 30.688C97.1358 31.968 97.4398 32.976 98.0478 33.712C98.6558 34.432 99.4958 34.792 100.568 34.792C101.032 34.792 101.424 34.776 101.744 34.744C102.08 34.696 102.352 34.648 102.56 34.6V27.4C102.304 27.224 101.96 27.064 101.528 26.92C101.112 26.76 100.664 26.68 100.184 26.68C99.1278 26.68 98.3518 27.04 97.8558 27.76C97.3758 28.48 97.1358 29.456 97.1358 30.688ZM105.464 36.616C104.888 36.792 104.16 36.952 103.28 37.096C102.416 37.24 101.504 37.312 100.544 37.312C99.5518 37.312 98.6638 37.16 97.8798 36.856C97.0958 36.552 96.4238 36.12 95.8638 35.56C95.3198 34.984 94.8958 34.296 94.5918 33.496C94.3038 32.68 94.1598 31.768 94.1598 30.76C94.1598 29.768 94.2798 28.872 94.5198 28.072C94.7758 27.256 95.1438 26.56 95.6238 25.984C96.1038 25.408 96.6878 24.968 97.3758 24.664C98.0638 24.344 98.8558 24.184 99.7518 24.184C100.36 24.184 100.896 24.256 101.36 24.4C101.824 24.544 102.224 24.704 102.56 24.88V18.856L105.464 18.376V36.616ZM117.481 30.688C117.481 29.456 117.233 28.48 116.737 27.76C116.257 27.04 115.489 26.68 114.433 26.68C113.953 26.68 113.497 26.752 113.065 26.896C112.649 27.04 112.313 27.2 112.057 27.376V34.6C112.265 34.648 112.529 34.696 112.849 34.744C113.185 34.776 113.585 34.792 114.049 34.792C115.121 34.792 115.961 34.432 116.569 33.712C117.177 32.976 117.481 31.968 117.481 30.688ZM120.457 30.736C120.457 31.744 120.305 32.656 120.001 33.472C119.713 34.272 119.289 34.96 118.729 35.536C118.185 36.112 117.521 36.552 116.737 36.856C115.953 37.16 115.065 37.312 114.073 37.312C113.113 37.312 112.193 37.24 111.313 37.096C110.449 36.952 109.729 36.792 109.153 36.616V18.856L112.057 18.376V24.88C112.393 24.704 112.801 24.544 113.281 24.4C113.777 24.256 114.321 24.184 114.913 24.184C115.793 24.184 116.577 24.344 117.265 24.664C117.969 24.968 118.553 25.408 119.017 25.984C119.481 26.56 119.833 27.256 120.073 28.072C120.329 28.872 120.457 29.76 120.457 30.736ZM134.802 30.712C134.802 31.704 134.658 32.608 134.37 33.424C134.082 34.24 133.674 34.936 133.146 35.512C132.618 36.088 131.978 36.536 131.226 36.856C130.49 37.176 129.674 37.336 128.778 37.336C127.882 37.336 127.066 37.176 126.33 36.856C125.594 36.536 124.962 36.088 124.434 35.512C123.906 34.936 123.49 34.24 123.186 33.424C122.898 32.608 122.754 31.704 122.754 30.712C122.754 29.72 122.898 28.824 123.186 28.024C123.49 27.208 123.906 26.512 124.434 25.936C124.978 25.36 125.618 24.92 126.354 24.616C127.09 24.296 127.898 24.136 128.778 24.136C129.658 24.136 130.466 24.296 131.202 24.616C131.954 24.92 132.594 25.36 133.122 25.936C133.65 26.512 134.058 27.208 134.346 28.024C134.65 28.824 134.802 29.72 134.802 30.712ZM131.826 30.712C131.826 29.464 131.554 28.48 131.01 27.76C130.482 27.024 129.738 26.656 128.778 26.656C127.818 26.656 127.066 27.024 126.522 27.76C125.994 28.48 125.73 29.464 125.73 30.712C125.73 31.976 125.994 32.976 126.522 33.712C127.066 34.448 127.818 34.816 128.778 34.816C129.738 34.816 130.482 34.448 131.01 33.712C131.554 32.976 131.826 31.976 131.826 30.712ZM144.945 27.064C144.705 26.984 144.369 26.904 143.937 26.824C143.521 26.728 143.033 26.68 142.473 26.68C142.153 26.68 141.809 26.712 141.441 26.776C141.089 26.84 140.841 26.896 140.697 26.944V37H137.793V25.048C138.353 24.84 139.049 24.648 139.881 24.472C140.729 24.28 141.665 24.184 142.689 24.184C142.881 24.184 143.105 24.2 143.361 24.232C143.617 24.248 143.873 24.28 144.129 24.328C144.385 24.36 144.633 24.408 144.873 24.472C145.113 24.52 145.305 24.568 145.449 24.616L144.945 27.064Z" fill="white"/>
<path d="M55 16V1H1V55H55V41" stroke="white" stroke-width="2"/>
</svg>
