<svg width="159" height="52" viewBox="0 0 159 52" fill="none" xmlns="http://www.w3.org/2000/svg">
<path d="M21.138 18.6C23.3527 18.6 25.0467 19.0033 26.22 19.81C27.408 20.6167 28.002 21.878 28.002 23.594C28.002 24.4887 27.8407 25.2587 27.518 25.904C27.21 26.5347 26.7553 27.0553 26.154 27.466C25.5527 27.862 24.8193 28.1553 23.954 28.346C23.0887 28.5367 22.0987 28.632 20.984 28.632H19.598V34H16.826V18.974C17.4713 18.8273 18.1827 18.732 18.96 18.688C19.752 18.6293 20.478 18.6 21.138 18.6ZM21.336 20.998C20.632 20.998 20.0527 21.02 19.598 21.064V26.256H20.94C22.2747 26.256 23.3013 26.0727 24.02 25.706C24.7387 25.3247 25.098 24.6133 25.098 23.572C25.098 23.0733 25.0027 22.6553 24.812 22.318C24.6213 21.9807 24.3573 21.7167 24.02 21.526C23.6827 21.3353 23.2793 21.2033 22.81 21.13C22.3553 21.042 21.864 20.998 21.336 20.998ZM34.735 18.6C36.935 18.6 38.6144 19.0033 39.773 19.81C40.9464 20.6167 41.533 21.8487 41.533 23.506C41.533 25.574 40.5137 26.9747 38.475 27.708C38.7537 28.0453 39.069 28.456 39.421 28.94C39.773 29.424 40.1324 29.952 40.499 30.524C40.8657 31.0813 41.2177 31.6607 41.555 32.262C41.8924 32.8487 42.193 33.428 42.457 34H39.355C39.0764 33.472 38.7757 32.944 38.453 32.416C38.1304 31.8733 37.8004 31.3527 37.463 30.854C37.1404 30.3407 36.8177 29.864 36.495 29.424C36.1724 28.9693 35.8717 28.566 35.593 28.214C35.3877 28.2287 35.2117 28.236 35.065 28.236C34.9184 28.236 34.779 28.236 34.647 28.236H33.305V34H30.533V18.974C31.2077 18.8273 31.9264 18.732 32.689 18.688C33.4517 18.6293 34.1337 18.6 34.735 18.6ZM34.933 20.998C34.3464 20.998 33.8037 21.02 33.305 21.064V25.992H34.515C35.1897 25.992 35.7837 25.9553 36.297 25.882C36.8104 25.8087 37.2357 25.6767 37.573 25.486C37.925 25.2953 38.189 25.0387 38.365 24.716C38.541 24.3933 38.629 23.9827 38.629 23.484C38.629 23.0147 38.541 22.6187 38.365 22.296C38.189 21.9733 37.9324 21.7167 37.595 21.526C37.2724 21.3353 36.8837 21.2033 36.429 21.13C35.9744 21.042 35.4757 20.998 34.933 20.998ZM46.6779 26.366C46.6779 27.202 46.7806 27.9647 46.9859 28.654C47.1913 29.3287 47.4846 29.908 47.8659 30.392C48.2619 30.8613 48.7386 31.228 49.2959 31.492C49.8533 31.756 50.4839 31.888 51.1879 31.888C51.8773 31.888 52.5006 31.756 53.0579 31.492C53.6153 31.228 54.0846 30.8613 54.4659 30.392C54.8619 29.908 55.1626 29.3287 55.3679 28.654C55.5733 27.9647 55.6759 27.202 55.6759 26.366C55.6759 25.53 55.5733 24.7747 55.3679 24.1C55.1626 23.4107 54.8619 22.8313 54.4659 22.362C54.0846 21.878 53.6153 21.504 53.0579 21.24C52.5006 20.976 51.8773 20.844 51.1879 20.844C50.4839 20.844 49.8533 20.976 49.2959 21.24C48.7386 21.504 48.2619 21.878 47.8659 22.362C47.4846 22.846 47.1913 23.4253 46.9859 24.1C46.7806 24.7747 46.6779 25.53 46.6779 26.366ZM58.5799 26.366C58.5799 27.6713 58.3819 28.8227 57.9859 29.82C57.6046 30.8173 57.0766 31.6533 56.4019 32.328C55.7419 32.988 54.9646 33.4867 54.0699 33.824C53.1753 34.1613 52.2219 34.33 51.2099 34.33C50.1979 34.33 49.2373 34.1613 48.3279 33.824C47.4333 33.4867 46.6486 32.988 45.9739 32.328C45.3139 31.6533 44.7859 30.8173 44.3899 29.82C43.9939 28.8227 43.7959 27.6713 43.7959 26.366C43.7959 25.0607 43.9939 23.9167 44.3899 22.934C44.7859 21.9367 45.3213 21.1007 45.9959 20.426C46.6853 19.7513 47.4773 19.2453 48.3719 18.908C49.2666 18.5707 50.2126 18.402 51.2099 18.402C52.2073 18.402 53.1533 18.5707 54.0479 18.908C54.9426 19.2453 55.7199 19.7513 56.3799 20.426C57.0546 21.1007 57.5899 21.9367 57.9859 22.934C58.3819 23.9167 58.5799 25.0607 58.5799 26.366Z" fill="#F44D34"/>
<path d="M64.4929 32.47C65.1649 32.47 65.6749 32.434 66.0229 32.362V29.95C65.9029 29.914 65.7289 29.878 65.5009 29.842C65.2729 29.806 65.0209 29.788 64.7449 29.788C64.5049 29.788 64.2589 29.806 64.0069 29.842C63.7669 29.878 63.5449 29.944 63.3409 30.04C63.1489 30.136 62.9929 30.274 62.8729 30.454C62.7529 30.622 62.6929 30.838 62.6929 31.102C62.6929 31.618 62.8549 31.978 63.1789 32.182C63.5029 32.374 63.9409 32.47 64.4929 32.47ZM64.3129 24.352C65.0329 24.352 65.6389 24.442 66.1309 24.622C66.6229 24.802 67.0129 25.054 67.3009 25.378C67.6009 25.702 67.8109 26.098 67.9309 26.566C68.0629 27.022 68.1289 27.526 68.1289 28.078V33.784C67.7929 33.856 67.2829 33.94 66.5989 34.036C65.9269 34.144 65.1649 34.198 64.3129 34.198C63.7489 34.198 63.2329 34.144 62.7649 34.036C62.2969 33.928 61.8949 33.754 61.5589 33.514C61.2349 33.274 60.9769 32.962 60.7849 32.578C60.6049 32.194 60.5149 31.72 60.5149 31.156C60.5149 30.616 60.6169 30.16 60.8209 29.788C61.0369 29.416 61.3249 29.116 61.6849 28.888C62.0449 28.648 62.4589 28.48 62.9269 28.384C63.4069 28.276 63.9049 28.222 64.4209 28.222C64.6609 28.222 64.9129 28.24 65.1769 28.276C65.4409 28.3 65.7229 28.348 66.0229 28.42V28.06C66.0229 27.808 65.9929 27.568 65.9329 27.34C65.8729 27.112 65.7649 26.914 65.6089 26.746C65.4649 26.566 65.2669 26.428 65.0149 26.332C64.7749 26.236 64.4689 26.188 64.0969 26.188C63.5929 26.188 63.1309 26.224 62.7109 26.296C62.2909 26.368 61.9489 26.452 61.6849 26.548L61.4149 24.784C61.6909 24.688 62.0929 24.592 62.6209 24.496C63.1489 24.4 63.7129 24.352 64.3129 24.352ZM78.5182 33.712C78.0982 33.82 77.5522 33.928 76.8802 34.036C76.2082 34.156 75.4702 34.216 74.6662 34.216C73.9102 34.216 73.2742 34.108 72.7582 33.892C72.2542 33.676 71.8462 33.376 71.5342 32.992C71.2342 32.608 71.0182 32.152 70.8862 31.624C70.7542 31.084 70.6882 30.496 70.6882 29.86V24.586H72.8662V29.518C72.8662 30.526 73.0102 31.246 73.2982 31.678C73.5982 32.11 74.1142 32.326 74.8462 32.326C75.1102 32.326 75.3862 32.314 75.6742 32.29C75.9742 32.266 76.1962 32.236 76.3402 32.2V24.586H78.5182V33.712ZM81.1823 22.102L83.3603 21.742V24.586H86.7083V26.404H83.3603V30.238C83.3603 30.994 83.4803 31.534 83.7203 31.858C83.9603 32.182 84.3683 32.344 84.9443 32.344C85.3403 32.344 85.6883 32.302 85.9883 32.218C86.3003 32.134 86.5463 32.056 86.7263 31.984L87.0863 33.712C86.8343 33.82 86.5043 33.928 86.0963 34.036C85.6883 34.156 85.2083 34.216 84.6563 34.216C83.9843 34.216 83.4203 34.126 82.9643 33.946C82.5203 33.766 82.1663 33.508 81.9023 33.172C81.6383 32.824 81.4523 32.41 81.3443 31.93C81.2363 31.438 81.1823 30.88 81.1823 30.256V22.102ZM97.1168 29.284C97.1168 30.028 97.0088 30.706 96.7928 31.318C96.5768 31.93 96.2708 32.452 95.8748 32.884C95.4788 33.316 94.9988 33.652 94.4348 33.892C93.8828 34.132 93.2708 34.252 92.5988 34.252C91.9268 34.252 91.3148 34.132 90.7628 33.892C90.2108 33.652 89.7368 33.316 89.3408 32.884C88.9448 32.452 88.6328 31.93 88.4048 31.318C88.1888 30.706 88.0808 30.028 88.0808 29.284C88.0808 28.54 88.1888 27.868 88.4048 27.268C88.6328 26.656 88.9448 26.134 89.3408 25.702C89.7488 25.27 90.2288 24.94 90.7808 24.712C91.3328 24.472 91.9388 24.352 92.5988 24.352C93.2588 24.352 93.8648 24.472 94.4168 24.712C94.9808 24.94 95.4608 25.27 95.8568 25.702C96.2528 26.134 96.5588 26.656 96.7748 27.268C97.0028 27.868 97.1168 28.54 97.1168 29.284ZM94.8848 29.284C94.8848 28.348 94.6808 27.61 94.2728 27.07C93.8768 26.518 93.3188 26.242 92.5988 26.242C91.8788 26.242 91.3148 26.518 90.9068 27.07C90.5108 27.61 90.3128 28.348 90.3128 29.284C90.3128 30.232 90.5108 30.982 90.9068 31.534C91.3148 32.086 91.8788 32.362 92.5988 32.362C93.3188 32.362 93.8768 32.086 94.2728 31.534C94.6808 30.982 94.8848 30.232 94.8848 29.284ZM105.607 29.338C105.607 28.366 105.385 27.61 104.941 27.07C104.509 26.53 103.807 26.26 102.835 26.26C102.631 26.26 102.415 26.272 102.187 26.296C101.971 26.308 101.755 26.344 101.539 26.404V31.786C101.731 31.918 101.983 32.044 102.295 32.164C102.619 32.272 102.961 32.326 103.321 32.326C104.113 32.326 104.689 32.056 105.049 31.516C105.421 30.976 105.607 30.25 105.607 29.338ZM107.839 29.302C107.839 30.022 107.743 30.682 107.551 31.282C107.371 31.882 107.107 32.398 106.759 32.83C106.411 33.262 105.973 33.598 105.445 33.838C104.929 34.078 104.341 34.198 103.681 34.198C103.237 34.198 102.829 34.144 102.457 34.036C102.085 33.928 101.779 33.808 101.539 33.676V37.33H99.3606V24.892C99.8046 24.772 100.351 24.658 100.999 24.55C101.647 24.442 102.331 24.388 103.051 24.388C103.795 24.388 104.461 24.502 105.049 24.73C105.637 24.958 106.135 25.288 106.543 25.72C106.963 26.14 107.281 26.656 107.497 27.268C107.725 27.868 107.839 28.546 107.839 29.302ZM118.597 29.284C118.597 30.028 118.489 30.706 118.273 31.318C118.057 31.93 117.751 32.452 117.355 32.884C116.959 33.316 116.479 33.652 115.915 33.892C115.363 34.132 114.751 34.252 114.079 34.252C113.407 34.252 112.795 34.132 112.243 33.892C111.691 33.652 111.217 33.316 110.821 32.884C110.425 32.452 110.113 31.93 109.885 31.318C109.669 30.706 109.561 30.028 109.561 29.284C109.561 28.54 109.669 27.868 109.885 27.268C110.113 26.656 110.425 26.134 110.821 25.702C111.229 25.27 111.709 24.94 112.261 24.712C112.813 24.472 113.419 24.352 114.079 24.352C114.739 24.352 115.345 24.472 115.897 24.712C116.461 24.94 116.941 25.27 117.337 25.702C117.733 26.134 118.039 26.656 118.255 27.268C118.483 27.868 118.597 28.54 118.597 29.284ZM116.365 29.284C116.365 28.348 116.161 27.61 115.753 27.07C115.357 26.518 114.799 26.242 114.079 26.242C113.359 26.242 112.795 26.518 112.387 27.07C111.991 27.61 111.793 28.348 111.793 29.284C111.793 30.232 111.991 30.982 112.387 31.534C112.795 32.086 113.359 32.362 114.079 32.362C114.799 32.362 115.357 32.086 115.753 31.534C116.161 30.982 116.365 30.232 116.365 29.284ZM122.551 29.266C122.551 30.226 122.779 30.982 123.235 31.534C123.691 32.074 124.321 32.344 125.125 32.344C125.473 32.344 125.767 32.332 126.007 32.308C126.259 32.272 126.463 32.236 126.619 32.2V26.8C126.427 26.668 126.169 26.548 125.845 26.44C125.533 26.32 125.197 26.26 124.837 26.26C124.045 26.26 123.463 26.53 123.091 27.07C122.731 27.61 122.551 28.342 122.551 29.266ZM128.797 33.712C128.365 33.844 127.819 33.964 127.159 34.072C126.511 34.18 125.827 34.234 125.107 34.234C124.363 34.234 123.697 34.12 123.109 33.892C122.521 33.664 122.017 33.34 121.597 32.92C121.189 32.488 120.871 31.972 120.643 31.372C120.427 30.76 120.319 30.076 120.319 29.32C120.319 28.576 120.409 27.904 120.589 27.304C120.781 26.692 121.057 26.17 121.417 25.738C121.777 25.306 122.215 24.976 122.731 24.748C123.247 24.508 123.841 24.388 124.513 24.388C124.969 24.388 125.371 24.442 125.719 24.55C126.067 24.658 126.367 24.778 126.619 24.91V20.392L128.797 20.032V33.712ZM137.81 29.266C137.81 28.342 137.624 27.61 137.252 27.07C136.892 26.53 136.316 26.26 135.524 26.26C135.164 26.26 134.822 26.314 134.498 26.422C134.186 26.53 133.934 26.65 133.742 26.782V32.2C133.898 32.236 134.096 32.272 134.336 32.308C134.588 32.332 134.888 32.344 135.236 32.344C136.04 32.344 136.67 32.074 137.126 31.534C137.582 30.982 137.81 30.226 137.81 29.266ZM140.042 29.302C140.042 30.058 139.928 30.742 139.7 31.354C139.484 31.954 139.166 32.47 138.746 32.902C138.338 33.334 137.84 33.664 137.252 33.892C136.664 34.12 135.998 34.234 135.254 34.234C134.534 34.234 133.844 34.18 133.184 34.072C132.536 33.964 131.996 33.844 131.564 33.712V20.392L133.742 20.032V24.91C133.994 24.778 134.3 24.658 134.66 24.55C135.032 24.442 135.44 24.388 135.884 24.388C136.544 24.388 137.132 24.508 137.648 24.748C138.176 24.976 138.614 25.306 138.962 25.738C139.31 26.17 139.574 26.692 139.754 27.304C139.946 27.904 140.042 28.57 140.042 29.302ZM150.8 29.284C150.8 30.028 150.692 30.706 150.476 31.318C150.26 31.93 149.954 32.452 149.558 32.884C149.162 33.316 148.682 33.652 148.118 33.892C147.566 34.132 146.954 34.252 146.282 34.252C145.61 34.252 144.998 34.132 144.446 33.892C143.894 33.652 143.42 33.316 143.024 32.884C142.628 32.452 142.316 31.93 142.088 31.318C141.872 30.706 141.764 30.028 141.764 29.284C141.764 28.54 141.872 27.868 142.088 27.268C142.316 26.656 142.628 26.134 143.024 25.702C143.432 25.27 143.912 24.94 144.464 24.712C145.016 24.472 145.622 24.352 146.282 24.352C146.942 24.352 147.548 24.472 148.1 24.712C148.664 24.94 149.144 25.27 149.54 25.702C149.936 26.134 150.242 26.656 150.458 27.268C150.686 27.868 150.8 28.54 150.8 29.284ZM148.568 29.284C148.568 28.348 148.364 27.61 147.956 27.07C147.56 26.518 147.002 26.242 146.282 26.242C145.562 26.242 144.998 26.518 144.59 27.07C144.194 27.61 143.996 28.348 143.996 29.284C143.996 30.232 144.194 30.982 144.59 31.534C144.998 32.086 145.562 32.362 146.282 32.362C147.002 32.362 147.56 32.086 147.956 31.534C148.364 30.982 148.568 30.232 148.568 29.284ZM158.408 26.548C158.228 26.488 157.976 26.428 157.652 26.368C157.34 26.296 156.974 26.26 156.554 26.26C156.314 26.26 156.056 26.284 155.78 26.332C155.516 26.38 155.33 26.422 155.222 26.458V34H153.044V25.036C153.464 24.88 153.986 24.736 154.61 24.604C155.246 24.46 155.948 24.388 156.716 24.388C156.86 24.388 157.028 24.4 157.22 24.424C157.412 24.436 157.604 24.46 157.796 24.496C157.988 24.52 158.174 24.556 158.354 24.604C158.534 24.64 158.678 24.676 158.786 24.712L158.408 26.548Z" fill="white"/>
<path d="M51 14.8889V1H1V51H51V38.037" stroke="white" stroke-width="2"/>
</svg>
