<svg width="60" height="60" viewBox="0 0 60 60" fill="none" xmlns="http://www.w3.org/2000/svg">
<mask id="path-1-inside-1" fill="white">
<path fill-rule="evenodd" clip-rule="evenodd" d="M17.9351 22.6732C17.6895 22.0813 17.8301 21.4 18.2832 20.9469C18.3967 20.8335 18.5215 20.7412 18.6537 20.6695C18.7364 20.5323 18.837 20.4029 18.9556 20.2846L22.8006 16.4492C23.6741 15.5779 25.1224 15.6956 25.8431 16.6964L28.8539 20.8776C29.4261 21.6723 29.337 22.7634 28.6434 23.4553L25.3889 26.7016C25.1528 26.9371 24.8724 27.1015 24.5745 27.1948C26.8788 30.3028 29.4549 32.8278 32.851 35.3008C32.9484 35.0452 33.1004 34.8055 33.3068 34.5995L36.5614 31.3532C37.255 30.6613 38.3489 30.5724 39.1456 31.1432L43.3374 34.1464C44.3407 34.8652 44.4587 36.3099 43.5852 37.1812L39.7401 41.0166C39.6161 41.1403 39.4798 41.2444 39.3352 41.3289C39.2647 41.453 39.1762 41.5704 39.069 41.6776C38.6008 42.1458 37.894 42.2843 37.2871 42.0193C26.8587 37.4654 22.2713 33.1213 17.9351 22.6732Z"/>
</mask>
<path d="M17.9351 22.6732L18.8587 22.2899L18.8587 22.2899L17.9351 22.6732ZM18.6537 20.6695L19.1307 21.5484C19.2874 21.4634 19.4184 21.3381 19.5104 21.1854L18.6537 20.6695ZM18.9556 20.2846L18.2494 19.5766L18.9556 20.2846ZM22.8006 16.4492L22.0944 15.7412L22.8006 16.4492ZM25.8431 16.6964L26.6546 16.112L25.8431 16.6964ZM28.8539 20.8776L28.0424 21.4619L28.0424 21.4619L28.8539 20.8776ZM28.6434 23.4553L29.3496 24.1633L28.6434 23.4553ZM25.3889 26.7016L24.6827 25.9936L24.6827 25.9936L25.3889 26.7016ZM24.5745 27.1948L24.2756 26.2405C23.9668 26.3372 23.7238 26.5775 23.6236 26.8853C23.5235 27.1931 23.5785 27.5304 23.7712 27.7904L24.5745 27.1948ZM32.851 35.3008L32.2623 36.1092C32.5141 36.2926 32.837 36.3482 33.1356 36.2595C33.4342 36.1708 33.6744 35.9481 33.7854 35.657L32.851 35.3008ZM33.3068 34.5995L34.013 35.3075L34.013 35.3075L33.3068 34.5995ZM36.5614 31.3532L37.2676 32.0612L36.5614 31.3532ZM39.1456 31.1432L38.5632 31.9562L39.1456 31.1432ZM43.3374 34.1464L43.9198 33.3335L43.3374 34.1464ZM43.5852 37.1812L42.879 36.4732L42.879 36.4732L43.5852 37.1812ZM39.7401 41.0166L39.0339 40.3085L39.0339 40.3085L39.7401 41.0166ZM39.3352 41.3289L38.8308 40.4654C38.6786 40.5543 38.5526 40.6819 38.4656 40.8352L39.3352 41.3289ZM37.2871 42.0193L37.6873 41.1029L37.2871 42.0193ZM17.5761 20.2398C16.8417 20.9742 16.6081 22.0845 17.0115 23.0565L18.8587 22.2899C18.7709 22.0782 18.8185 21.8258 18.9903 21.654L17.5761 20.2398ZM18.1768 19.7906C17.9604 19.908 17.7579 20.058 17.5761 20.2398L18.9903 21.654C19.0354 21.6089 19.0827 21.5745 19.1307 21.5484L18.1768 19.7906ZM18.2494 19.5766C18.0725 19.7529 17.9215 19.947 17.7971 20.1536L19.5104 21.1854C19.5512 21.1176 19.6014 21.0528 19.6618 20.9926L18.2494 19.5766ZM22.0944 15.7412L18.2494 19.5766L19.6618 20.9926L23.5068 17.1572L22.0944 15.7412ZM26.6546 16.112C25.5738 14.611 23.4036 14.4353 22.0944 15.7412L23.5068 17.1572C23.9446 16.7205 24.6711 16.7801 25.0316 17.2807L26.6546 16.112ZM29.6654 20.2932L26.6546 16.112L25.0316 17.2807L28.0424 21.4619L29.6654 20.2932ZM29.3496 24.1633C30.3905 23.1251 30.5246 21.4864 29.6654 20.2932L28.0424 21.4619C28.3277 21.8581 28.2836 22.4018 27.9372 22.7472L29.3496 24.1633ZM26.095 27.4096L29.3496 24.1633L27.9372 22.7472L24.6827 25.9936L26.095 27.4096ZM24.8734 28.1491C25.3211 28.0089 25.7422 27.7616 26.095 27.4096L24.6827 25.9936C24.5634 26.1126 24.4238 26.1941 24.2756 26.2405L24.8734 28.1491ZM33.4396 34.4924C30.1187 32.0742 27.617 29.6194 25.3778 26.5992L23.7712 27.7904C26.1406 30.9862 28.791 33.5815 32.2623 36.1092L33.4396 34.4924ZM33.7854 35.657C33.8334 35.531 33.9085 35.4118 34.013 35.3075L32.6006 33.8915C32.2922 34.1991 32.0634 34.5594 31.9165 34.9447L33.7854 35.657ZM34.013 35.3075L37.2676 32.0612L35.8552 30.6451L32.6006 33.8915L34.013 35.3075ZM37.2676 32.0612C37.6148 31.7148 38.1637 31.6699 38.5632 31.9562L39.728 30.3303C38.5341 29.475 36.8952 29.6078 35.8552 30.6451L37.2676 32.0612ZM38.5632 31.9562L42.755 34.9593L43.9198 33.3335L39.728 30.3303L38.5632 31.9562ZM42.755 34.9593C43.2565 35.3186 43.3147 36.0386 42.879 36.4732L44.2914 37.8892C45.6027 36.5812 45.425 34.4119 43.9198 33.3335L42.755 34.9593ZM42.879 36.4732L39.0339 40.3085L40.4463 41.7246L44.2914 37.8892L42.879 36.4732ZM39.0339 40.3085C38.9708 40.3715 38.9025 40.4235 38.8308 40.4654L39.8396 42.1923C40.0571 42.0653 40.2613 41.9091 40.4463 41.7246L39.0339 40.3085ZM39.7761 42.3847C39.9471 42.2137 40.0902 42.0245 40.2049 41.8225L38.4656 40.8352C38.4392 40.8816 38.4053 40.9271 38.3619 40.9705L39.7761 42.3847ZM36.887 42.9358C37.8764 43.3678 39.0213 43.1395 39.7761 42.3847L38.3619 40.9705C38.1803 41.1521 37.9116 41.2008 37.6873 41.1029L36.887 42.9358ZM17.0115 23.0565C19.2084 28.3499 21.5024 32.1791 24.6232 35.2674C27.7402 38.352 31.6203 40.6359 36.887 42.9358L37.6873 41.1029C32.5256 38.8488 28.8978 36.6838 26.0299 33.8458C23.1658 31.0115 20.9981 27.4446 18.8587 22.2899L17.0115 23.0565Z" fill="white" mask="url(#path-1-inside-1)"/>
<line y1="-0.5" x2="5.59173" y2="-0.5" transform="matrix(-0.708 -0.706212 0.708 -0.706212 28.3613 23.7366)" stroke="white"/>
<line y1="-0.5" x2="5.59173" y2="-0.5" transform="matrix(-0.708 -0.706212 0.708 -0.706212 42.7126 38.0515)" stroke="white"/>
<circle cx="30.5" cy="30.5" r="22" stroke="white"/>
</svg>
