<svg width="100" height="100" viewBox="0 0 100 100" fill="none" xmlns="http://www.w3.org/2000/svg">
<path d="M9.76562 67.1875L7.77004 69.4048C6.96372 70.3007 7.12719 71.701 8.11821 72.3871L10.2076 73.8336C10.8836 74.3016 11.2043 75.1357 11.016 75.9361L10.344 78.7919C10.0486 80.0473 11.0011 81.25 12.2908 81.25H12.8264C13.584 81.25 14.2765 80.822 14.6153 80.1444L14.9577 79.4597C15.1379 79.0991 15.4229 78.8015 15.7752 78.6058L18.297 77.2048C18.5941 77.0397 18.9284 76.9531 19.2683 76.9531H24.6094H30.8786C31.1241 76.9531 31.3675 76.9983 31.5966 77.0864L36.3281 78.9062L43.3594 81.25L47.6562 82.8125L54.0709 84.3218C54.2211 84.3572 54.3748 84.375 54.529 84.375H57.4273C57.6818 84.375 57.9339 84.3264 58.1701 84.232L60.4144 83.3342C61.1971 83.0212 62.092 83.2324 62.652 83.8624L63.5241 84.8435C64.24 85.6489 65.4863 85.6856 66.2483 84.9236C66.5995 84.5723 67.0759 84.375 67.5727 84.375H71.2246C71.6473 84.375 72.0591 84.5089 72.401 84.7575L72.9955 85.1899C74.3175 86.1513 76.1719 85.207 76.1719 83.5725V81.4821C76.1719 81.3279 76.1897 81.1742 76.225 81.024L77.3716 76.1513C77.5841 75.2479 78.3903 74.6094 79.3184 74.6094H82.8954C84.2242 74.6094 85.1835 73.3376 84.8185 72.0599L81.9055 61.8647C81.7382 61.2788 81.847 60.6486 82.2011 60.1528L82.9955 59.0406C83.3709 58.5151 83.9771 58.2031 84.623 58.2031H89.2344C89.8639 58.2031 90.4567 57.9067 90.8344 57.4031L93.0084 54.5045C93.4629 53.8984 93.536 53.0876 93.1972 52.4101L91.959 49.9337C91.6203 49.2561 90.9277 48.8281 90.1702 48.8281H87.5034C86.4228 48.8281 85.5469 47.9522 85.5469 46.8716C85.5469 46.3721 85.3558 45.8914 85.0128 45.5282L79.4522 39.6406C79.1016 39.2693 78.9062 38.778 78.9062 38.2673V37.1566C78.9062 36.6261 78.6955 36.1174 78.3205 35.7423L77.0459 34.4678C76.5102 33.9321 76.3232 33.1398 76.5628 32.4211L77.4516 29.7546C77.6315 29.2148 77.573 28.6239 77.2907 28.1298L76.4354 26.633C76.2627 26.3308 76.1719 25.9888 76.1719 25.6407V24.3381C76.1719 24.0035 76.0879 23.6742 75.9277 23.3804L74.2049 20.2221C73.9628 19.7781 73.5614 19.4423 73.0816 19.2824L69.7093 18.1583C69.3383 18.0346 68.9393 18.0224 68.5615 18.1232L65.0504 19.0595C64.0491 19.3265 63.0097 18.7844 62.6555 17.8105L62.3641 17.0092C62.0019 16.013 60.9252 15.4724 59.9099 15.777L58.7499 16.125C58.1725 16.2982 57.5467 16.1405 57.1205 15.7143C56.8132 15.407 56.3965 15.2344 55.962 15.2344H54.8705C54.4956 15.2344 54.1283 15.129 53.8105 14.9304L52.9481 14.3914C51.9807 13.7868 50.7043 14.1125 50.145 15.1069L48.4882 18.0523C48.0083 18.9054 46.9814 19.2859 46.0615 18.9514L44.7688 18.4813C43.9336 18.1775 42.9981 18.4614 42.4725 19.1781L39.0625 23.8281L36.5047 28.5783C36.388 28.7951 36.2323 28.9884 36.0453 29.1486L33.9252 30.9659C33.7068 31.1531 33.5314 31.3852 33.4108 31.6463L31.4341 35.9293C31.3128 36.192 31.25 36.478 31.25 36.7674V41.1627C31.25 42.2616 29.9213 42.812 29.1443 42.0349C28.7689 41.6595 28.1953 41.5664 27.7204 41.8038L26.1719 42.5781L22.9977 43.8478C22.5556 44.0247 22.2656 44.4529 22.2656 44.9291C22.2656 45.5723 21.7442 46.0938 21.101 46.0938H17.1875H13.8301C12.5478 46.0938 11.5968 47.2835 11.8792 48.5343L14.0134 57.9856C14.046 58.1302 14.0625 58.2779 14.0625 58.4261V62.3965C14.0625 62.96 13.8248 63.4973 13.4078 63.8764L9.76562 67.1875Z" stroke="white" stroke-width="2"/>
<path d="M9.49554 66.7474L7.51361 68.9556C6.70996 69.8511 6.87313 71.2483 7.86149 71.9344L9.93185 73.3717C10.6061 73.8398 10.9259 74.6724 10.7384 75.4715L10.072 78.3115C9.77752 79.5667 10.7299 80.7684 12.0191 80.7684H12.5303C13.2886 80.7684 13.9817 80.3395 14.3201 79.6609L14.657 78.9852C14.8368 78.6246 15.1214 78.3266 15.4735 78.1305L17.9747 76.737C18.2724 76.5712 18.6074 76.4842 18.9481 76.4842H24.2545H30.4848C30.7309 76.4842 30.9749 76.5296 31.2045 76.6182L35.9062 78.4316L42.8973 80.7684L47.1696 82.3263L53.5458 83.8308C53.6963 83.8663 53.8504 83.8842 54.0051 83.8842H56.8817C57.1368 83.8842 57.3895 83.8354 57.6263 83.7404L59.8447 82.8506C60.6287 82.5361 61.5257 82.7481 62.0859 83.3802L62.9467 84.3512C63.658 85.1537 64.8986 85.1901 65.6558 84.4308C66.0048 84.0809 66.4787 83.8842 66.9729 83.8842H70.5982C71.0218 83.8842 71.4344 84.0187 71.7766 84.2683L72.3438 84.6819C73.6655 85.6458 75.5223 84.7018 75.5223 83.066V80.9999C75.5223 80.8461 75.5401 80.6928 75.5752 80.543L76.7138 75.6905C76.9259 74.7865 77.7324 74.1474 78.6609 74.1474H82.1943C83.5225 74.1474 84.4817 72.8767 84.1178 71.5993L81.2234 61.4408C81.0568 60.8562 81.1652 60.2275 81.5178 59.7324L82.3037 58.6291C82.679 58.1023 83.2859 57.7895 83.9327 57.7895H88.5028C89.1332 57.7895 89.7268 57.4922 90.1044 56.9873L92.2617 54.1029C92.7144 53.4977 92.7872 52.689 92.4499 52.0126L91.2219 49.5497C90.8835 48.871 90.1904 48.4421 89.432 48.4421H86.7956C85.7176 48.4421 84.8438 47.5682 84.8438 46.4902C84.8438 45.9928 84.6538 45.5141 84.3128 45.152L78.7851 39.2829C78.4357 38.9119 78.2411 38.4214 78.2411 37.9117V36.8057C78.2411 36.2763 78.0311 35.7684 77.6572 35.3935L76.393 34.1257C75.8592 33.5904 75.6728 32.7999 75.9113 32.0826L76.7946 29.4252C76.9736 28.8866 76.9154 28.2973 76.6344 27.8041L75.7846 26.313C75.6127 26.0113 75.5223 25.67 75.5223 25.3228V24.0245C75.5223 23.6907 75.4388 23.3621 75.2792 23.0689L73.5682 19.9232C73.3264 19.4787 72.9251 19.1424 72.4453 18.982L69.1013 17.8642C68.7295 17.7399 68.3293 17.7277 67.9506 17.829L64.477 18.7578C63.4747 19.0258 62.4339 18.4829 62.0802 17.5075L61.7967 16.7257C61.4348 15.728 60.3567 15.1866 59.3403 15.4923L58.2011 15.835C57.6265 16.0079 57.0034 15.8506 56.5797 15.4257C56.2743 15.1195 55.8596 14.9474 55.4272 14.9474H54.3473C53.9716 14.9474 53.6035 14.8416 53.2851 14.642L52.4444 14.1151C51.4761 13.5082 50.197 13.8346 49.6379 14.8313L48.0016 17.7485C47.5219 18.6036 46.4932 18.9849 45.5721 18.649L44.3095 18.1886C43.473 17.8836 42.5356 18.1683 42.01 18.887L38.625 23.5158L36.0823 28.251C35.9659 28.4678 35.8106 28.6612 35.624 28.8216L33.5183 30.6315C33.3003 30.8188 33.1253 31.0509 33.0051 31.312L31.0403 35.5809C30.9196 35.8432 30.8571 36.1284 30.8571 36.4171V40.8038C30.8571 41.8965 29.5353 42.4429 28.7638 41.6692C28.3905 41.2949 27.8192 41.2021 27.3467 41.4391L25.808 42.2105L22.6533 43.4759C22.2128 43.6526 21.9241 44.0795 21.9241 44.5541C21.9241 45.1957 21.404 45.7158 20.7624 45.7158H16.875H13.5495C12.2677 45.7158 11.3168 46.9047 11.5984 48.1551L13.719 57.5725C13.7515 57.7167 13.7679 57.8641 13.7679 58.0119V61.9695C13.7679 62.5321 13.531 63.0686 13.1152 63.4476L9.49554 66.7474Z" stroke="white" stroke-width="2"/>
</svg>
