<svg width="100" height="100" viewBox="0 0 100 100" fill="none" xmlns="http://www.w3.org/2000/svg">
<line x1="30" y1="33" x2="69" y2="33" stroke="white" stroke-width="2"/>
<line x1="44" y1="13" x2="49" y2="13" stroke="white" stroke-width="2" stroke-linecap="round"/>
<line x1="30" y1="45" x2="69" y2="45" stroke="white" stroke-width="2"/>
<line x1="30" y1="57" x2="69" y2="57" stroke="white" stroke-width="2"/>
<path d="M59.6667 10H78C79.1046 10 80 10.8954 80 12V92C80 93.1046 79.1046 94 78 94H21C19.8954 94 19 93.1046 19 92V12C19 10.8954 19.8954 10 21 10H40.1154" stroke="white" stroke-width="2"/>
<mask id="path-6-inside-1" fill="white">
<path d="M60.3431 70.3431C61.5681 69.1182 63.1577 68.3239 64.8728 68.0798C66.5879 67.8357 68.3359 68.155 69.854 68.9895C71.3721 69.8241 72.5783 71.129 73.2912 72.7079C74.0041 74.2868 74.1852 76.0545 73.8073 77.7451C73.4294 79.4358 72.5129 80.9581 71.1956 82.0832C69.8783 83.2084 68.2313 83.8754 66.5023 83.9842C64.7733 84.093 63.0558 83.6376 61.6078 82.6865C60.1599 81.7353 59.0598 80.3399 58.473 78.7099L66 76L60.3431 70.3431Z"/>
</mask>
<path d="M60.3431 70.3431C61.5681 69.1182 63.1577 68.3239 64.8728 68.0798C66.5879 67.8357 68.3359 68.155 69.854 68.9895C71.3721 69.8241 72.5783 71.129 73.2912 72.7079C74.0041 74.2868 74.1852 76.0545 73.8073 77.7451C73.4294 79.4358 72.5129 80.9581 71.1956 82.0832C69.8783 83.2084 68.2313 83.8754 66.5023 83.9842C64.7733 84.093 63.0558 83.6376 61.6078 82.6865C60.1599 81.7353 59.0598 80.3399 58.473 78.7099L66 76L60.3431 70.3431Z" stroke="white" stroke-width="4" mask="url(#path-6-inside-1)"/>
<mask id="path-7-inside-2" fill="white">
<path d="M60.3431 70.3431C61.086 69.6003 61.9679 69.011 62.9385 68.609C63.9091 68.2069 64.9494 68 66 68C67.0506 68 68.0909 68.2069 69.0615 68.609C70.0321 69.011 70.914 69.6003 71.6569 70.3431C72.3997 71.086 72.989 71.9679 73.391 72.9385C73.7931 73.9091 74 74.9494 74 76C74 77.0506 73.7931 78.0909 73.391 79.0615C72.989 80.0321 72.3997 80.914 71.6569 81.6569L66 76L60.3431 70.3431Z"/>
</mask>
<path d="M60.3431 70.3431C61.086 69.6003 61.9679 69.011 62.9385 68.609C63.9091 68.2069 64.9494 68 66 68C67.0506 68 68.0909 68.2069 69.0615 68.609C70.0321 69.011 70.914 69.6003 71.6569 70.3431C72.3997 71.086 72.989 71.9679 73.391 72.9385C73.7931 73.9091 74 74.9494 74 76C74 77.0506 73.7931 78.0909 73.391 79.0615C72.989 80.0321 72.3997 80.914 71.6569 81.6569L66 76L60.3431 70.3431Z" stroke="white" stroke-width="4" mask="url(#path-7-inside-2)"/>
<mask id="path-8-inside-3" fill="white">
<path d="M53.1729 77.6269C52.6786 76.1915 52.603 74.6451 52.9548 73.1684C53.3066 71.6916 54.0714 70.3454 55.1597 69.2871L60.737 75.0224L53.1729 77.6269Z"/>
</mask>
<path d="M53.1729 77.6269C52.6786 76.1915 52.603 74.6451 52.9548 73.1684C53.3066 71.6916 54.0714 70.3454 55.1597 69.2871L60.737 75.0224L53.1729 77.6269Z" stroke="white" stroke-width="4" mask="url(#path-8-inside-3)"/>
<rect x="41" y="8" width="20" height="11" rx="1" stroke="white" stroke-width="2"/>
</svg>
