<svg width="100" height="100" viewBox="0 0 100 100" fill="none" xmlns="http://www.w3.org/2000/svg">
<path d="M68.2244 90C68.2244 90 69.7479 90 19.0381 90C17.9336 90 17 89.1046 17 88V8C17 6.89543 17.8954 6 19 6H76C77.1046 6 78 6.89543 78 8V61.2602" stroke="white" stroke-width="2"/>
<mask id="path-2-inside-1" fill="white">
<path fill-rule="evenodd" clip-rule="evenodd" d="M79 76.2469C81.4208 74.5251 83 71.697 83 68.5C83 63.2533 78.7467 59 73.5 59C68.2533 59 64 63.2533 64 68.5C64 71.697 65.5792 74.5251 68 76.2469V94L73.5 86.4L79 94V76.2469Z"/>
</mask>
<path d="M79 76.2469L77.8408 74.6171L77 75.2151V76.2469H79ZM68 76.2469H70V75.2151L69.1592 74.6171L68 76.2469ZM68 94H66V100.175L69.6202 95.1725L68 94ZM73.5 86.4L75.1202 85.2275L73.5 82.9886L71.8798 85.2275L73.5 86.4ZM79 94L77.3798 95.1725L81 100.175V94H79ZM81 68.5C81 71.0223 79.7568 73.2544 77.8408 74.6171L80.1592 77.8767C83.0849 75.7958 85 72.3716 85 68.5H81ZM73.5 61C77.6421 61 81 64.3579 81 68.5H85C85 62.1487 79.8513 57 73.5 57V61ZM66 68.5C66 64.3579 69.3579 61 73.5 61V57C67.1487 57 62 62.1487 62 68.5H66ZM69.1592 74.6171C67.2432 73.2544 66 71.0223 66 68.5H62C62 72.3716 63.9151 75.7958 66.8408 77.8767L69.1592 74.6171ZM70 94V76.2469H66V94H70ZM71.8798 85.2275L66.3798 92.8275L69.6202 95.1725L75.1202 87.5725L71.8798 85.2275ZM80.6202 92.8275L75.1202 85.2275L71.8798 87.5725L77.3798 95.1725L80.6202 92.8275ZM77 76.2469V94H81V76.2469H77Z" fill="white" mask="url(#path-2-inside-1)"/>
<path d="M70 68.1429L73.2063 71L78 66" stroke="white" stroke-width="2" stroke-linecap="round"/>
<line x1="34" y1="29" x2="61" y2="29" stroke="white" stroke-width="2"/>
<line x1="34" y1="41" x2="61" y2="41" stroke="white" stroke-width="2"/>
<line x1="34" y1="53" x2="61" y2="53" stroke="white" stroke-width="2"/>
<line x1="34" y1="65" x2="61" y2="65" stroke="white" stroke-width="2"/>
</svg>
