<svg width="100" height="100" viewBox="0 0 100 100" fill="none" xmlns="http://www.w3.org/2000/svg">
<path d="M34 59.5098L48.4144 38.263C50.6477 34.9712 54.367 33 58.3448 33H59.8789C63.9735 33 67.7854 35.0877 69.9903 38.5378L83.5511 59.7564C85.129 62.2253 85.749 65.1861 85.2944 68.0806L84.8358 71" stroke="white" stroke-width="2"/>
<path d="M52.3214 34L41.8398 20.8308C40.5524 19.2132 42.2656 16.944 44.1739 17.7391L49.8752 20.1147C50.6389 20.4329 51.5198 20.248 52.0911 19.6495L57.9104 13.553C58.7116 12.7137 60.0565 12.73 60.837 13.5886L66.3654 19.6698C66.9023 20.2604 67.7389 20.4752 68.4939 20.2164L74.7748 18.0629C76.6446 17.4218 78.212 19.5928 77.0151 21.1659L67.25 34" stroke="white" stroke-width="2"/>
<path d="M30 59L62.3481 66.3922C63.4898 66.6531 64.4517 67.4175 64.9638 68.4707V68.4707C66.0221 70.6473 64.8432 73.25 62.5092 73.89L59.9632 74.5882C58.9781 74.8583 57.9407 74.875 56.9474 74.6367L42.1978 71.0976" stroke="white" stroke-width="2" stroke-linecap="round"/>
<path d="M64.1566 73.18L81.2678 69.339C82.2338 69.1221 83.2465 69.302 84.0787 69.8382V69.8382C86.5832 71.4517 86.2469 75.2135 83.496 76.3573L59.6224 86.2834C56.9595 87.3906 53.9868 87.5018 51.2486 86.5965L25 77.9184" stroke="white" stroke-width="2"/>
<path d="M12 54.2478C12 53.6494 12.522 53.185 13.1163 53.2546L28.6397 55.072C29.2361 55.1418 29.6369 55.7176 29.4952 56.3011L23.1992 82.2359C23.0904 82.6843 22.6889 83 22.2274 83H13C12.4477 83 12 82.5523 12 82V54.2478Z" stroke="white" stroke-width="2"/>
<path d="M59 46V65" stroke="white" stroke-width="2" stroke-linecap="round"/>
<rect x="45" y="33" width="27" height="2" rx="1" fill="white"/>
<path d="M65 52.6088V52.6088C65 51.6035 64.795 50.5799 64.1848 49.7809C63.1618 48.4416 62.0243 48.0843 59.7037 48.0131C57.4231 47.9074 56.2597 48.431 54.9031 49.9617C54.2858 50.6582 54 51.5807 54 52.5114V52.5114C54 53.5607 54.3582 54.6147 55.2135 55.2225C56.7845 56.339 58.9456 57.0397 62.9227 59.1349C64.1787 59.7965 64.9565 61.102 64.9902 62.5212V62.5212C64.9967 62.7971 64.9783 63.0739 64.9169 63.3429C64.6413 64.55 64.1927 65.1918 62.963 66" stroke="white" stroke-width="2" stroke-linecap="round"/>
</svg>
