<svg width="100" height="100" viewBox="0 0 100 100" fill="none" xmlns="http://www.w3.org/2000/svg">
<mask id="path-1-inside-1" fill="white">
<path fill-rule="evenodd" clip-rule="evenodd" d="M81 40.1323C81 38.5733 81.9337 37.1935 83.2217 36.3152C87.3135 33.525 90 28.8262 90 23.5C90 18.9478 88.0376 14.854 84.9127 12.0183C82.8394 10.1369 80 12.0015 80 14.8012V23.6955C80 24.9959 79.3679 26.2151 78.3051 26.9645L76.3051 28.3748C74.9229 29.3494 73.0771 29.3494 71.6949 28.3748L69.6949 26.9645C68.6321 26.2151 68 24.9959 68 23.6955V15.6821C68 12.7615 64.9542 10.9448 62.9961 13.1118C60.5124 15.8605 59 19.5036 59 23.5C59 28.8262 61.6865 33.525 65.7783 36.3152C67.0663 37.1935 68 38.5733 68 40.1323V80C68 82.2091 69.7909 84 72 84H77C79.2091 84 81 82.2091 81 80V40.1323ZM74.5 8L74.5672 8.00014H74.4328L74.5 8Z"/>
</mask>
<path d="M74.5672 8.00014V10.0001L74.5714 6.00015L74.5672 8.00014ZM74.5 8L74.5042 5.99999L74.4958 6L74.5 8ZM74.4328 8.00014L74.4286 6.00015L74.4328 10.0001V8.00014ZM65.7783 36.3152L66.905 34.6628L65.7783 36.3152ZM76.3051 28.3748L75.1525 26.7402L76.3051 28.3748ZM71.6949 28.3748L70.5424 30.0093L71.6949 28.3748ZM83.2217 36.3152L82.0949 34.6628L83.2217 36.3152ZM84.3485 37.9676C88.9633 34.8207 92 29.5153 92 23.5H88C88 28.1371 85.6638 32.2292 82.0949 34.6628L84.3485 37.9676ZM92 23.5C92 18.3604 89.7818 13.736 86.2567 10.5372L83.5687 13.4994C86.2935 15.972 88 19.5353 88 23.5H92ZM78 14.8012V23.6955H82V14.8012H78ZM77.1525 25.33L75.1525 26.7402L77.4576 30.0093L79.4576 28.599L77.1525 25.33ZM72.8475 26.7402L70.8475 25.33L68.5424 28.599L70.5424 30.0093L72.8475 26.7402ZM70 23.6955V15.6821H66V23.6955H70ZM61.5122 11.7709C58.7093 14.8729 57 18.9892 57 23.5H61C61 20.0181 62.3156 16.8481 64.4801 14.4527L61.5122 11.7709ZM57 23.5C57 29.5153 60.0367 34.8207 64.6515 37.9676L66.905 34.6628C63.3362 32.2292 61 28.1371 61 23.5H57ZM70 80V40.1323H66V80H70ZM77 82H72V86H77V82ZM79 40.1323V80H83V40.1323H79ZM74.5714 6.00015L74.5042 6L74.4958 10L74.563 10.0001L74.5714 6.00015ZM74.4328 10.0001H74.5672V6.00014H74.4328V10.0001ZM74.4958 6L74.4286 6.00015L74.437 10.0001L74.5042 10L74.4958 6ZM77 86C80.3137 86 83 83.3137 83 80H79C79 81.1046 78.1046 82 77 82V86ZM66 80C66 83.3137 68.6863 86 72 86V82C70.8954 82 70 81.1046 70 80H66ZM64.6515 37.9676C65.5497 38.58 66 39.4039 66 40.1323H70C70 37.7428 68.5829 35.8069 66.905 34.6628L64.6515 37.9676ZM70 15.6821C70 13.5272 68.8708 11.6493 67.1894 10.733C65.406 9.76099 63.1371 9.97261 61.5122 11.7709L64.4801 14.4527C64.6926 14.2175 64.8488 14.1746 64.9167 14.1639C64.9972 14.1512 65.1181 14.1596 65.2753 14.2452C65.6063 14.4256 66 14.9164 66 15.6821H70ZM75.1525 26.7402C74.4614 27.2276 73.5386 27.2276 72.8475 26.7402L70.5424 30.0093C72.6157 31.4712 75.3843 31.4712 77.4576 30.0093L75.1525 26.7402ZM78 23.6955C78 24.3457 77.6839 24.9553 77.1525 25.33L79.4576 28.599C81.0518 27.4749 82 25.6461 82 23.6955H78ZM86.2567 10.5372C84.5281 8.96862 82.3291 8.93257 80.6505 9.93897C79.0537 10.8962 78 12.7282 78 14.8012H82C82 14.0745 82.3659 13.5743 82.7072 13.3697C82.87 13.2721 83.0061 13.2507 83.1059 13.2589C83.1935 13.2661 83.3524 13.3031 83.5687 13.4994L86.2567 10.5372ZM70.8475 25.33C70.3161 24.9553 70 24.3457 70 23.6955H66C66 25.6461 66.9482 27.4749 68.5424 28.599L70.8475 25.33ZM82.0949 34.6628C80.4171 35.8069 79 37.7428 79 40.1323H83C83 39.4039 83.4503 38.58 84.3485 37.9676L82.0949 34.6628Z" fill="white" mask="url(#path-1-inside-1)"/>
<circle cx="25" cy="63" r="5" stroke="white" stroke-width="2"/>
<line x1="34" y1="63" x2="61" y2="63" stroke="white" stroke-width="2"/>
<path d="M19 75H31V81C31 81.5523 30.5523 82 30 82H20C19.4477 82 19 81.5523 19 81V75Z" stroke="white" stroke-width="2"/>
<path d="M18 53L31.1407 31.9412C31.506 31.3558 32.1473 31 32.8374 31H62" stroke="white" stroke-width="2"/>
<path d="M12 58C12 55.2386 14.2386 53 17 53H69V75H17C14.2386 75 12 72.7614 12 70V58Z" stroke="white" stroke-width="2"/>
</svg>
